<svg id="Glyph" height="512" viewBox="0 0 512 512" width="512" xmlns="http://www.w3.org/2000/svg"><path d="m104 48h80a16.019 16.019 0 0 0 16-16h-112a16.019 16.019 0 0 0 16 16z"/><path d="m64 360v-208a40.045 40.045 0 0 1 40-40h152v-64a16.019 16.019 0 0 0 -16-16h-24a32.036 32.036 0 0 1 -32 32h-80a32.036 32.036 0 0 1 -32-32h-24a16.019 16.019 0 0 0 -16 16v416a16.019 16.019 0 0 0 16 16h192a16.019 16.019 0 0 0 16-16v-64h-152a40.045 40.045 0 0 1 -40-40zm112 72a8 8 0 1 1 -8 8 8 8 0 0 1 8-8zm-32 0a8 8 0 1 1 -8 8 8 8 0 0 1 8-8zm-32 0a8 8 0 1 1 -8 8 8 8 0 0 1 8-8z"/><circle cx="256" cy="256" r="32"/><path d="m80.358 147.9 69.612 45.4a8 8 0 1 1 -8.74 13.4l-61.23-39.931v193.231a24.027 24.027 0 0 0 24 24h304a24.027 24.027 0 0 0 24-24v-193.231l-61.23 39.931a8 8 0 1 1 -8.74-13.4l69.612-45.4a24.035 24.035 0 0 0 -23.642-19.9h-304a24.035 24.035 0 0 0 -23.642 19.9zm175.642 12.1a96.108 96.108 0 0 1 96 96v16a31.991 31.991 0 0 1 -59.921 15.607 48 48 0 1 1 -4.079-67.346v-4.261a8 8 0 0 1 16 0v56a16 16 0 0 0 32 0v-16a79.982 79.982 0 1 0 -34 65.459 8 8 0 0 1 9.212 13.082 96 96 0 1 1 -55.212-174.541z"/></svg>